<?xml version="1.0" encoding="utf-8"?>
<!-- Generator: Adobe Illustrator 27.4.1, SVG Export Plug-In . SVG Version: 6.00 Build 0)  -->
<svg version="1.1" id="Capa_1" xmlns="http://www.w3.org/2000/svg" xmlns:xlink="http://www.w3.org/1999/xlink" x="0px" y="0px"
	 viewBox="0 0 300.2 284.1" style="enable-background:new 0 0 300.2 284.1;" xml:space="preserve">
<style type="text/css">
	.st0{fill:#FD5900;}
</style>
<g>
	<path class="st0" d="M265.8,250.9c0,0-0.1,0.1-0.1,0.1c-1,1.2-2,2.4-3.2,3.5c-17.1,17.3-44.1,18-62.7,2.2c-1.5-1.2-3-2.6-4.5-4
		l-45.6-45.6l-2.2,2.3c-8.4,8.6-16.7,17-25,25.5c-5.8,5.9-12.6,12.8-19.7,19.7c-18.4,17.9-47.1,17.8-65.2-0.1
		c-18.1-17.9-18-46.5,0.1-65.2c3.1-3.2,6.3-6.4,9.1-9.2l0.6-0.6c1.3-1.3,2.7-2.6,4-3.9L65.2,163c0.5-0.4,1-0.7,1.4-1
		c0,0,0.1-0.1,0.1-0.1c1.2-0.8,2.4-1.5,3.6-2c0.1,0,0.1,0,0.2-0.1c1.7-0.6,3.5-0.9,5.3-0.9c8.6,0,15.5,7,15.5,15.6
		c0,1-0.1,2.1-0.3,3.1c0,0,0,0.1,0,0.1c-0.1,0.2-0.1,0.3-0.1,0.5c-0.7,2.6-2,5-3.8,7.1c-0.4,0.5-0.8,1-1.3,1.4l-8,6.9
		c-5.7,4.9-11.7,10.8-18.1,17.8c-5.1,5.5-5.5,15.3-0.8,20.5c2.9,3.3,6.9,5.2,11.1,5.4c3.2,0.1,6.2-0.8,8.7-2.7l0.1-0.1
		c0.4-0.3,0.8-0.7,1.2-1.1c1.6-1.6,3.2-3.2,4.9-4.8l0.1-0.1l55.9-53.4c5.9-4.8,14.5-5,20.3-0.6c0.4,0.3,0.7,0.6,1,0.9
		c9.1,9,18.1,18,26.9,26.8c0.5,0.5,1,1,1.6,1.6c5.1,5.1,10.4,10.4,15.6,15.7c3.9,3.9,7.9,7.8,11.8,11.8c0,0,0.1,0.1,0.1,0.1
		c0.4,0.4,0.8,0.7,1.2,1.1c5.2,4.8,14.2,5.4,19.6,1.6c0.2-0.2,0.4-0.3,0.6-0.5c0.2-0.1,0.4-0.3,0.6-0.5c0.3-0.2,0.5-0.5,0.7-0.7
		c0.1-0.1,0.2-0.2,0.3-0.3c0.1-0.1,0.2-0.2,0.3-0.3c0.2-0.2,0.3-0.4,0.5-0.6c0.1-0.1,0.2-0.2,0.2-0.3c3.3-4.6,3.8-11,1-16
		c-0.7-1.3-1.9-2.6-3.1-3.9c-0.2-0.2-0.3-0.4-0.5-0.5c-0.2-0.2-0.4-0.4-0.6-0.6c-0.8-0.8-1.6-1.6-2.3-2.4l-0.1-0.1l-42.3-44.2
		l-11.1-11.6c-4.8-5.9-5-14.5-0.6-20.3c0.3-0.4,0.6-0.7,0.9-1c2.5-2.6,5.1-5.1,7.6-7.7c7-7,14-14,20.8-20.8
		c8.4-8.4,17.1-17,25.7-25.7c0,0,0,0,0,0c1-1,2-2,3-3c0.1-0.1,0.3-0.3,0.4-0.4c5.1-5.2,5.5-13.4,0.9-19.4c-1.5-1.9-3.4-3.4-5.5-4.3
		c-0.2-0.1-0.4-0.2-0.6-0.3c-0.1,0-0.1-0.1-0.2-0.1c-1.2-0.5-2.4-0.8-3.7-1c0,0-0.1,0-0.1,0c-3.1-0.4-6.3,0.1-9.1,1.7
		c-1.2,0.7-2.4,1.7-3.5,2.7c-0.5,0.5-1,1-1.5,1.4l0,0l0,0c-16.9,16.8-34.3,34.2-53.4,53.4C130.1,140.9,84,141,49.6,106.9
		c-4.3-4.3-8-7.9-11.6-11.6c-0.7-0.7-1.4-1.5-2.1-2.3c-0.4-0.4-0.8-0.9-1.1-1.3C25.9,80.5,22.6,66.6,25,53.6
		c0.1-0.4,0.2-0.8,0.2-1.2c0.1-0.4,0.2-0.9,0.3-1.3c0.5-2.1,1.2-4.2,2-6.2c0.6-1.4,1.2-2.8,1.9-4.1c1.1-2,2.3-3.9,3.6-5.8
		c0.9-1.2,1.9-2.5,3-3.6c0.5-0.6,1.1-1.2,1.6-1.7c0,0,0,0,0,0c0.4-0.4,0.9-0.9,1.3-1.3c0.4-0.4,0.8-0.7,1.1-1c0-0.1,0.1-0.1,0.1-0.1
		c0.6-0.5,1.1-0.9,1.7-1.4c1-0.8,2-1.5,3.1-2.2c0.5-0.3,0.9-0.6,1.4-0.9c0.5-0.3,0.9-0.5,1.4-0.8c0.5-0.3,0.9-0.5,1.4-0.8
		c0.1-0.1,0.3-0.1,0.4-0.2c0.3-0.1,0.6-0.3,0.9-0.4c0.3-0.2,0.7-0.3,1-0.5c0.1-0.1,0.2-0.1,0.3-0.1c0,0,0,0,0.1,0
		c0.4-0.1,0.7-0.3,1.1-0.4c0.1,0,0.1,0,0.2-0.1c0,0,0.1,0,0.1,0c0.5-0.2,0.9-0.4,1.4-0.5c0.3-0.1,0.6-0.2,1-0.3
		c0.3-0.1,0.5-0.2,0.8-0.3c0.1,0,0.2-0.1,0.3-0.1c0.1,0,0.1,0,0.2-0.1c0.2-0.1,0.4-0.1,0.6-0.2c0,0,0.1,0,0.1,0c0,0,0.1,0,0.1,0
		c0.5-0.1,0.9-0.3,1.4-0.4c0.5-0.1,1.1-0.3,1.6-0.4c0.6-0.1,1.2-0.2,1.7-0.3c0.1,0,0.3,0,0.4-0.1c13-2.1,26.8,1.6,37.7,11
		c0.7,0.6,1.5,1.3,2.2,2c1.6,1.5,3.2,3.1,4.7,4.6l0,0l18.5,18.8c0.4,0.5,0.7,1,1,1.4c0,0,0.1,0.1,0.1,0.1c0.8,1.2,1.5,2.4,2,3.6
		c0,0.1,0,0.1,0.1,0.2c0.6,1.7,0.9,3.5,0.9,5.3c0,2.3-0.5,4.6-1.5,6.6c0,0,0,0,0,0.1c-2.5,5.2-7.7,7.9-13.9,7.9
		c-1,0-2.1-0.1-3.1-0.3c0,0-0.1,0-0.1,0c-0.2-0.1-0.3-0.1-0.5-0.1c-2.6-0.7-5-2-7.1-3.8c-0.5-0.4-1-0.8-1.4-1.3l-6-5.8L80.9,51.7
		c-0.5-0.4-1-0.8-1.5-1.2c-4.6-3.2-11.1-3.8-15.9-1.6c-0.1,0-0.1,0.1-0.2,0.1c-1.1,0.5-2.1,1.1-2.9,1.9c-3.3,2.9-5.2,6.9-5.4,11.1
		c-0.1,3,0.7,5.9,2.4,8.3c0.1,0.1,0.2,0.3,0.3,0.4c0.3,0.5,0.7,0.9,1.1,1.3c1.6,1.7,3.1,3.4,4.7,5c4.8,5.1,9.4,9.5,14,13.5
		c13.5,11.7,35.1,14.1,50.3,5.7c8.1-4.5,21.3-17.9,21.4-18.1c3.5-3.5,6.9-7,10.4-10.5l0.1-0.1c12.2-12.3,23.7-24,35.6-35.7l0,0
		c0.6-0.6,1.1-1.1,1.7-1.6c8.9-8.3,19.3-12.9,29.7-13.9h0.1c11.4-1,22.8,2.3,32.3,10.2c0.5,0.4,0.9,0.8,1.4,1.2
		c0.5,0.4,0.9,0.8,1.4,1.3c0.2,0.2,0.4,0.4,0.7,0.6c8.8,8.7,13.6,20.1,13.6,32c0,0,0,0,0,0v0.3c0,0.3,0,0.6,0,0.9
		c-0.3,11.5-4.9,22.6-13.2,31.8c-0.7,0.8-1.4,1.5-2.1,2.2l-36.4,36.4l-9.1,9.1l2.3,2.2c5.5,5.4,11.1,10.8,16.6,16.2
		c3,2.9,6,5.9,8.9,8.8c5.9,5.8,12.8,12.6,19.7,19.7c7.6,7.8,12,17.5,13.1,27.5c0,0.3,0.1,0.6,0.1,0.9
		C277.1,229.4,273.8,241.1,265.8,250.9z"/>
</g>
</svg>
